<?xml version="1.0" encoding="utf-8"?>
<!-- Generator: Adobe Illustrator 23.0.3, SVG Export Plug-In . SVG Version: 6.00 Build 0)  -->
<svg version="1.1" xmlns="http://www.w3.org/2000/svg" xmlns:xlink="http://www.w3.org/1999/xlink" x="0px" y="0px"
	 viewBox="0 0 574.9 211.2" style="enable-background:new 0 0 574.9 211.2;" xml:space="preserve">
<style type="text/css">
	.st0{fill:#1D1D1B;}
	.st1{fill:#68201F;}
	.st2{fill:#EA182C;}
</style>
<g id="Layer_2">
</g>
<g id="LOGO">
	<g>
		<g>
			<path class="st0" d="M465.7,188.2h-6.9v21.2c0,0.5-0.4,1-1,1h-14c-0.5,0-1-0.4-1-1V147c0-0.5,0.4-1,1-1h25.9
				c8.2,0,14.6,1.7,19.1,5.1c4.6,3.4,6.9,8.1,6.9,14.3c0,4.6-0.9,8.3-2.8,11.3c-1.9,3-5,5.4-9.3,7.3l14.1,25
				c0.4,0.7-0.1,1.5-0.9,1.5h-15.3c-0.4,0-0.7-0.2-0.9-0.5l-10.3-19C469.4,189.3,467.6,188.2,465.7,188.2z M458.8,175.3h10.8
				c6.7,0,10-2.8,10-8.3c0-5.4-3.5-8.1-10.4-8.1h-10.4V175.3z"/>
			<path class="st0" d="M382.7,145.2c-18.2,0-33,14.8-33,33s14.8,33,33,33c18.2,0,33-14.8,33-33S400.9,145.2,382.7,145.2z
				 M382.7,197.5c-10.7,0-19.3-8.6-19.3-19.3c0-10.7,8.6-19.3,19.3-19.3c10.7,0,19.3,8.6,19.3,19.3
				C402,188.9,393.3,197.5,382.7,197.5z"/>
			<path class="st0" d="M262,178.2c0-19.2,14.8-33,34.7-33c10.7,0,19.6,3.7,25.7,10.6c0.4,0.4,0.3,1-0.1,1.4l-8.1,7.4
				c-0.4,0.4-1,0.3-1.4-0.1c-4.2-4.4-9.3-6.7-15.4-6.7c-12,0-20.4,8.4-20.4,20.4c0,12,8.5,20.4,20.4,20.4c6.1,0,11.2-2.3,15.4-6.8
				c0.4-0.4,1-0.4,1.4-0.1l8.1,7.4c0.4,0.4,0.4,1,0.1,1.4c-6,6.9-15,10.7-25.8,10.7C276.8,211.2,262,197.4,262,178.2z"/>
			<path class="st0" d="M59.8,146.9v63.6H50c-1.6,0-3.1-0.7-4-1.9l-30.7-37.3v38.3c0,0.6-0.4,1-1,1H1.5c-0.6,0-1-0.4-1-1v-63.6h9.9
				c1.6,0,3.1,0.7,4.1,1.9L45,185.2v-38.3c0-0.6,0.4-1,1-1h12.8C59.4,145.9,59.8,146.4,59.8,146.9z"/>
			<path class="st0" d="M136.9,199.5v10c0,0.6-0.4,1-1,1h-47c-1.2,0-2.1-0.9-2.1-2.1V148c0-1.2,0.9-2.1,2.1-2.1h45.8
				c0.6,0,1,0.4,1,1v10c0,0.6-0.4,1-1,1h-30.9c-1.2,0-2.1,0.9-2.1,2.1v11.9h29c0.6,0,1,0.4,1,1v9.6c0,0.6-0.4,1-1,1h-29v12.9
				c0,1.2,0.9,2.1,2.1,2.1h32.1C136.5,198.5,136.9,199,136.9,199.5z"/>
			<path class="st0" d="M574.9,199.5v10c0,0.5-0.4,1-1,1h-47c-1.2,0-2.1-0.9-2.1-2.1V148c0-1.2,0.9-2.1,2.1-2.1h45.8
				c0.5,0,1,0.4,1,1v10c0,0.5-0.4,1-1,1h-30.9c-1.2,0-2.1,0.9-2.1,2.1v11.9h29c0.5,0,1,0.4,1,1v9.7c0,0.5-0.4,1-1,1h-29v12.9
				c0,1.2,0.9,2.1,2.1,2.1h32.1C574.4,198.5,574.9,199,574.9,199.5z"/>
			<path class="st0" d="M220.2,146.9v44.8l-12.8-12.7c-0.6-0.6-1.4-0.9-2.2-0.9h-11.5c-0.8,0-1.6,0.3-2.2,0.9l-12.8,12.7v-44.8
				c0-0.6-0.4-1-1-1h-12.8c-0.6,0-1,0.4-1,1v63.6h12.6c1.4,0,2.7-0.6,3.7-1.5l17.7-17.7c0.8-0.8,2.1-0.8,3,0l17.7,17.7
				c1,1,2.3,1.5,3.7,1.5H235v-63.6c0-0.6-0.4-1-1-1h-12.8C220.7,145.9,220.2,146.4,220.2,146.9z"/>
		</g>
		<path class="st1" d="M231.5,67.3L123.3,1.5c-1.7-1-3.6-1.5-5.5-1.5v45.8c1.9,0,3.8,0.5,5.5,1.5l108.4,65.8c1.7,1.1,4-0.2,4-2.2
			V74.6C235.6,71.6,234,68.9,231.5,67.3z"/>
		<path class="st2" d="M112.3,1.5L4.1,67.2C1.6,68.8,0,71.5,0,74.5v36.4c0,2,2.2,3.3,4,2.2l108.4-65.8c1.7-1,3.6-1.5,5.5-1.5V0
			C115.9,0,114,0.5,112.3,1.5z"/>
	</g>
</g>
</svg>
